<svg width="13" height="24" viewBox="0 0 13 24" fill="none" xmlns="http://www.w3.org/2000/svg">
<path d="M11 10.0999C11.1 9.59994 10.7 8.99994 10.2 8.99994L4.5 8.19994L1.9 2.99994C1.8 2.79994 1.7 2.69994 1.5 2.59994C1 2.29994 0.400001 2.49994 0.1 2.99994L-2.4 8.19994L-8.1 8.99994C-8.4 8.99994 -8.6 9.09994 -8.7 9.29994C-9.1 9.69994 -9.1 10.2999 -8.7 10.6999L-4.6 14.6999L-5.6 20.3999C-5.6 20.5999 -5.6 20.7999 -5.5 20.9999C-5.2 21.4999 -4.6 21.6999 -4.1 21.3999L1 18.6999L6.1 21.3999C6.2 21.4999 6.4 21.4999 6.6 21.4999C6.7 21.4999 6.7 21.4999 6.8 21.4999C7.3 21.3999 7.7 20.8999 7.6 20.2999L6.6 14.5999L10.7 10.5999C10.9 10.4999 11 10.2999 11 10.0999Z" fill="#FFCF55"/>
</svg>
