<svg width="8" height="8" viewBox="0 0 8 8" fill="none" xmlns="http://www.w3.org/2000/svg">
<path d="M4.03937 3.05597C3.56549 3.05597 3.17877 3.44269 3.17877 3.91657C3.17877 4.39045 3.56549 4.77717 4.03937 4.77717C4.51325 4.77717 4.89997 4.39045 4.89997 3.91657C4.89997 3.44269 4.51325 3.05597 4.03937 3.05597ZM6.62052 3.91657C6.62052 3.56019 6.62375 3.20705 6.60373 2.85131C6.58372 2.43812 6.48946 2.07142 6.18731 1.76927C5.88452 1.46648 5.51846 1.37287 5.10527 1.35285C4.74889 1.33284 4.39575 1.33607 4.04001 1.33607C3.68364 1.33607 3.33049 1.33284 2.97476 1.35285C2.56157 1.37287 2.19486 1.46713 1.89272 1.76927C1.58993 2.07206 1.49631 2.43812 1.4763 2.85131C1.45628 3.20769 1.45951 3.56084 1.45951 3.91657C1.45951 4.2723 1.45628 4.6261 1.4763 4.98183C1.49631 5.39502 1.59057 5.76172 1.89272 6.06387C2.19551 6.36666 2.56157 6.46027 2.97476 6.48029C3.33114 6.5003 3.68428 6.49707 4.04001 6.49707C4.39639 6.49707 4.74954 6.5003 5.10527 6.48029C5.51846 6.46027 5.88517 6.36602 6.18731 6.06387C6.4901 5.76108 6.58372 5.39502 6.60373 4.98183C6.62439 4.6261 6.62052 4.27295 6.62052 3.91657V3.91657ZM4.03937 5.24072C3.3066 5.24072 2.71522 4.64934 2.71522 3.91657C2.71522 3.1838 3.3066 2.59243 4.03937 2.59243C4.77214 2.59243 5.36352 3.1838 5.36352 3.91657C5.36352 4.64934 4.77214 5.24072 4.03937 5.24072ZM5.41775 2.84744C5.24666 2.84744 5.1085 2.70928 5.1085 2.53819C5.1085 2.36711 5.24666 2.22895 5.41775 2.22895C5.58883 2.22895 5.72699 2.36711 5.72699 2.53819C5.72705 2.57882 5.71908 2.61906 5.70356 2.6566C5.68803 2.69414 5.66526 2.72825 5.63653 2.75698C5.6078 2.78571 5.57369 2.80848 5.53615 2.82401C5.49861 2.83953 5.45837 2.84749 5.41775 2.84744V2.84744Z" fill="#70737C"/>
</svg>
