<svg width="20" height="18" viewBox="0 0 20 18" fill="none" xmlns="http://www.w3.org/2000/svg">
<path d="M17.6573 2.30092C16.6273 1.28233 15.2619 0.660641 13.8078 0.548152C12.3538 0.435663 10.9068 0.839793 9.72841 1.68754C8.49211 0.780536 6.9533 0.369256 5.42187 0.536524C3.89044 0.703792 2.48014 1.43718 1.47497 2.58901C0.469806 3.74083 -0.0555637 5.22554 0.00465958 6.74413C0.0648829 8.26273 0.706226 9.70242 1.79954 10.7733L7.83364 16.7346C8.33893 17.2251 9.01946 17.5 9.72841 17.5C10.4374 17.5 11.1179 17.2251 11.6232 16.7346L17.6573 10.7733C18.7918 9.6474 19.4286 8.12449 19.4286 6.5371C19.4286 4.94971 18.7918 3.4268 17.6573 2.30092ZM16.2872 9.45067L10.2531 15.4024C10.1845 15.4708 10.1027 15.5251 10.0127 15.5621C9.9226 15.5992 9.82599 15.6183 9.72841 15.6183C9.63083 15.6183 9.53422 15.5992 9.44416 15.5621C9.35409 15.5251 9.27237 15.4708 9.20371 15.4024L3.1696 9.42192C2.40757 8.65361 1.98086 7.62151 1.98086 6.54669C1.98086 5.47186 2.40757 4.43977 3.1696 3.67145C3.94612 2.91525 4.99341 2.49123 6.08463 2.49123C7.17584 2.49123 8.22313 2.91525 8.99965 3.67145C9.08998 3.76128 9.19745 3.83258 9.31586 3.88124C9.43427 3.9299 9.56127 3.95495 9.68954 3.95495C9.81782 3.95495 9.94482 3.9299 10.0632 3.88124C10.1816 3.83258 10.2891 3.76128 10.3794 3.67145C11.156 2.91525 12.2032 2.49123 13.2945 2.49123C14.3857 2.49123 15.433 2.91525 16.2095 3.67145C16.982 4.4297 17.4227 5.4562 17.4372 6.53105C17.4518 7.6059 17.039 8.64363 16.2872 9.42192V9.45067Z" fill="#359740"/>
</svg>
