<svg width="69" height="44" viewBox="0 0 69 44" fill="none" xmlns="http://www.w3.org/2000/svg">
<rect x="0.922852" width="67.3077" height="43.0769" rx="4.03846" fill="white"/>
<path d="M20.9443 28.134H18.1541C17.9632 28.134 17.8008 28.2727 17.771 28.4612L16.6426 35.6159C16.6201 35.7571 16.7295 35.8844 16.8727 35.8844H18.2047C18.3957 35.8844 18.558 35.7457 18.5878 35.5568L18.8922 33.6271C18.9215 33.4382 19.0843 33.2994 19.2749 33.2994H20.1581C21.9961 33.2994 23.0568 32.4101 23.3338 30.6476C23.4587 29.8765 23.3391 29.2707 22.9781 28.8464C22.5815 28.3805 21.8782 28.134 20.9443 28.134ZM21.2662 30.7471C21.1136 31.7483 20.3487 31.7483 19.609 31.7483H19.188L19.4833 29.8785C19.5009 29.7655 19.5988 29.6823 19.713 29.6823H19.906C20.4098 29.6823 20.8851 29.6823 21.1307 29.9695C21.2772 30.1409 21.3221 30.3955 21.2662 30.7471Z" fill="#253B80"/>
<path d="M29.2854 30.7148H27.9493C27.8354 30.7148 27.7371 30.798 27.7196 30.911L27.6604 31.2847L27.567 31.1493C27.2777 30.7295 26.6327 30.5891 25.9889 30.5891C24.5125 30.5891 23.2514 31.7074 23.0058 33.2761C22.8781 34.0586 23.0596 34.8068 23.5035 35.3286C23.9107 35.8084 24.4933 36.0083 25.1864 36.0083C26.3761 36.0083 27.0358 35.2433 27.0358 35.2433L26.9762 35.6146C26.9538 35.7566 27.0631 35.8839 27.2055 35.8839H28.4091C28.6004 35.8839 28.762 35.7451 28.7921 35.5562L29.5143 30.9832C29.5371 30.8425 29.4282 30.7148 29.2854 30.7148ZM27.423 33.3152C27.294 34.0785 26.6882 34.591 25.9155 34.591C25.5275 34.591 25.2174 34.4665 25.0183 34.2307C24.8209 33.9965 24.7458 33.6632 24.8086 33.292C24.929 32.5352 25.545 32.006 26.3059 32.006C26.6853 32.006 26.9938 32.1321 27.1969 32.3699C27.4005 32.6102 27.4813 32.9456 27.423 33.3152Z" fill="#253B80"/>
<path d="M36.4 30.7146H35.0573C34.9292 30.7146 34.8089 30.7782 34.7363 30.8847L32.8844 33.6125L32.0995 30.9912C32.0501 30.8272 31.8988 30.7146 31.7274 30.7146H30.408C30.2477 30.7146 30.1363 30.8713 30.1873 31.0222L31.6662 35.3623L30.2758 37.3251C30.1665 37.4797 30.2766 37.6923 30.4655 37.6923H31.8066C31.9339 37.6923 32.053 37.6302 32.1252 37.5258L36.5909 31.0797C36.6978 30.9255 36.5881 30.7146 36.4 30.7146Z" fill="#253B80"/>
<path d="M40.8466 28.1338H38.0561C37.8655 28.1338 37.7032 28.2725 37.6734 28.461L36.5449 35.6157C36.5225 35.7569 36.6318 35.8842 36.7742 35.8842H38.2062C38.3392 35.8842 38.453 35.7871 38.4738 35.6549L38.7941 33.6268C38.8235 33.4379 38.9863 33.2992 39.1768 33.2992H40.0597C41.898 33.2992 42.9583 32.4098 43.2358 30.6473C43.361 29.8763 43.2407 29.2704 42.8796 28.8461C42.4835 28.3802 41.7805 28.1338 40.8466 28.1338ZM41.1685 30.7469C41.0164 31.7481 40.2514 31.7481 39.5113 31.7481H39.0907L39.3865 29.8783C39.404 29.7653 39.5011 29.6821 39.6158 29.6821H39.8087C40.3122 29.6821 40.7879 29.6821 41.0335 29.9693C41.18 30.1406 41.2244 30.3952 41.1685 30.7469Z" fill="#179BD7"/>
<path d="M49.187 30.7148H47.8517C47.737 30.7148 47.6395 30.798 47.6224 30.911L47.5632 31.2847L47.4694 31.1493C47.1801 30.7295 46.5355 30.5891 45.8917 30.5891C44.4153 30.5891 43.1546 31.7074 42.909 33.2761C42.7817 34.0586 42.9624 34.8068 43.4063 35.3286C43.8143 35.8084 44.3961 36.0083 45.0892 36.0083C46.2789 36.0083 46.9386 35.2433 46.9386 35.2433L46.879 35.6146C46.8566 35.7566 46.9659 35.8839 47.1091 35.8839H48.3123C48.5028 35.8839 48.6652 35.7451 48.6949 35.5562L49.4175 30.9832C49.4395 30.8425 49.3302 30.7148 49.187 30.7148ZM47.3245 33.3152C47.1964 34.0785 46.5898 34.591 45.8171 34.591C45.4299 34.591 45.119 34.4665 44.9199 34.2307C44.7225 33.9965 44.6482 33.6632 44.7102 33.292C44.8314 32.5352 45.4466 32.006 46.2075 32.006C46.5869 32.006 46.8954 32.1321 47.0985 32.3699C47.3029 32.6102 47.3837 32.9456 47.3245 33.3152Z" fill="#179BD7"/>
<path d="M50.7604 28.3299L49.6152 35.6156C49.5928 35.7568 49.7021 35.8841 49.8445 35.8841H50.9958C51.1872 35.8841 51.3495 35.7454 51.3789 35.5565L52.5082 28.4022C52.5306 28.261 52.4213 28.1333 52.2789 28.1333H50.9897C50.8759 28.1337 50.778 28.2169 50.7604 28.3299Z" fill="#179BD7"/>
<path d="M31.9749 22.9087L32.2893 20.9119L31.589 20.8956H28.2451L30.5689 6.16109C30.5761 6.11661 30.5996 6.07514 30.6339 6.04568C30.6681 6.01623 30.712 6 30.7577 6H36.3959C38.2677 6 39.5594 6.38951 40.2339 7.1583C40.55 7.51896 40.7514 7.89584 40.8488 8.31059C40.951 8.74578 40.9528 9.26572 40.853 9.89988L40.8458 9.94616V10.3525L41.162 10.5316C41.4282 10.6729 41.6398 10.8346 41.8021 11.0197C42.0726 11.3281 42.2475 11.72 42.3215 12.1846C42.3978 12.6625 42.3725 13.2311 42.2475 13.8749C42.1033 14.6154 41.87 15.2604 41.5551 15.7882C41.2653 16.2744 40.8963 16.6778 40.4581 16.9903C40.0397 17.2873 39.5426 17.5127 38.9806 17.6569C38.436 17.7988 37.8151 17.8703 37.134 17.8703H36.6952C36.3815 17.8703 36.0767 17.9833 35.8375 18.1859C35.5977 18.3927 35.439 18.6752 35.3903 18.9842L35.3572 19.1639L34.8018 22.6833L34.7766 22.8125C34.77 22.8534 34.7585 22.8738 34.7417 22.8876C34.7267 22.9003 34.705 22.9087 34.684 22.9087H31.9749Z" fill="#253B80"/>
<path d="M41.4613 9.99316C41.4445 10.1008 41.4253 10.2108 41.4036 10.3238C40.6601 14.1413 38.1163 15.4601 34.8674 15.4601H33.2132C32.8158 15.4601 32.481 15.7486 32.4191 16.1405L31.5722 21.5119L31.3324 23.0344C31.2921 23.2917 31.4904 23.5237 31.7501 23.5237H34.684C35.0315 23.5237 35.3266 23.2713 35.3813 22.9286L35.4102 22.7796L35.9626 19.274L35.998 19.0817C36.0521 18.7378 36.3479 18.4854 36.6953 18.4854H37.1341C39.9766 18.4854 42.2019 17.3313 42.8523 13.9916C43.124 12.5965 42.9833 11.4316 42.2644 10.6123C42.0468 10.3652 41.7769 10.1603 41.4613 9.99316Z" fill="#179BD7"/>
<path d="M40.6833 9.6829C40.5697 9.64984 40.4525 9.61979 40.3323 9.59274C40.2115 9.56629 40.0877 9.54285 39.9602 9.52241C39.5142 9.45028 39.0255 9.41602 38.502 9.41602H34.0828C33.974 9.41602 33.8706 9.44066 33.778 9.48514C33.5742 9.58312 33.4228 9.77607 33.3861 10.0123L32.446 15.9667L32.4189 16.1404C32.4809 15.7485 32.8157 15.46 33.213 15.46H34.8672C38.1161 15.46 40.6599 14.1406 41.4034 10.3237C41.4257 10.2107 41.4443 10.1007 41.4612 9.99306C41.273 9.89328 41.0692 9.80793 40.8498 9.73519C40.7957 9.71716 40.7398 9.69973 40.6833 9.6829Z" fill="#222D65"/>
<path d="M33.3873 10.0123C33.4239 9.77609 33.5754 9.58314 33.7792 9.48576C33.8724 9.44128 33.9751 9.41664 34.0839 9.41664H38.5032C39.0267 9.41664 39.5154 9.4509 39.9614 9.52303C40.0888 9.54347 40.2127 9.56691 40.3335 9.59336C40.4537 9.62041 40.5709 9.65046 40.6845 9.68352C40.741 9.70035 40.7969 9.71778 40.8516 9.73521C41.071 9.80795 41.2748 9.8939 41.4629 9.99308C41.6841 8.58232 41.4611 7.62178 40.6983 6.752C39.8574 5.79447 38.3397 5.38452 36.3975 5.38452H30.7593C30.3626 5.38452 30.0242 5.67304 29.9629 6.06556L27.6144 20.9516C27.5681 21.2461 27.7953 21.5118 28.0923 21.5118H31.5732L32.4472 15.9667L33.3873 10.0123Z" fill="#253B80"/>
</svg>
