<svg width="7" height="8" viewBox="0 0 7 8" fill="none" xmlns="http://www.w3.org/2000/svg">
<path d="M5.69712 5.7487L4.88004 4.93761C5.1972 4.54185 5.3508 4.03953 5.30924 3.53392C5.26768 3.02831 5.03413 2.55785 4.65661 2.21928C4.27909 1.88071 3.7863 1.69976 3.27956 1.71363C2.77282 1.72751 2.29065 1.93516 1.93219 2.29389C1.57374 2.65261 1.36625 3.13515 1.35238 3.64227C1.33851 4.1494 1.51933 4.64257 1.85764 5.02037C2.19596 5.39818 2.66606 5.63191 3.17128 5.6735C3.67651 5.71509 4.17845 5.56137 4.57391 5.24397L5.38438 6.05506C5.40486 6.07572 5.42921 6.09211 5.45605 6.1033C5.48289 6.11449 5.51168 6.12025 5.54075 6.12025C5.56982 6.12025 5.59861 6.11449 5.62545 6.1033C5.65229 6.09211 5.67664 6.07572 5.69712 6.05506C5.73681 6.01396 5.759 5.95904 5.759 5.90188C5.759 5.84472 5.73681 5.7898 5.69712 5.7487V5.7487ZM3.33838 5.24397C3.03347 5.24397 2.7354 5.15349 2.48188 4.98396C2.22835 4.81443 2.03075 4.57347 1.91407 4.29155C1.79738 4.00964 1.76685 3.69943 1.82634 3.40015C1.88582 3.10087 2.03265 2.82596 2.24826 2.61019C2.46386 2.39442 2.73856 2.24748 3.03761 2.18795C3.33667 2.12842 3.64664 2.15897 3.92835 2.27575C4.21005 2.39252 4.45082 2.59027 4.62022 2.84399C4.78962 3.0977 4.88004 3.396 4.88004 3.70114C4.88004 4.11032 4.71761 4.50275 4.4285 4.79209C4.13938 5.08142 3.74725 5.24397 3.33838 5.24397V5.24397Z" fill="#70737C"/>
</svg>
